HIERARCHY
ROOT hip
{
  OFFSET 0 0 0
  CHANNELS 6 Xposition Yposition Zposition Zrotation Yrotation Xrotation
  JOINT abdomen
  {
    OFFSET 0 20.6881 -0.73152
    CHANNELS 3 Zrotation Xrotation Yrotation
    JOINT chest
    {
      OFFSET 0 11.7043 -0.48768
      CHANNELS 3 Zrotation Xrotation Yrotation
      JOINT neck
      {
        OFFSET 0 22.1894 -2.19456
        CHANNELS 3 Zrotation Xrotation Yrotation
        JOINT head
        {
          OFFSET -0.24384 7.07133 1.2192
          CHANNELS 3 Zrotation Xrotation Yrotation
          JOINT leftEye
          {
            OFFSET 4.14528 8.04674 8.04672
            CHANNELS 3 Zrotation Xrotation Yrotation
            End Site
            {
              OFFSET 1 0 0
            }
          }
          JOINT rightEye
          {
            OFFSET -3.6576 8.04674 8.04672
            CHANNELS 3 Zrotation Xrotation Yrotation
            End Site
            {
              OFFSET 1 0 0
            }
          }
        }
      }
      JOINT rCollar
      {
        OFFSET -2.68224 19.2634 -4.8768
        CHANNELS 3 Zrotation Xrotation Yrotation
        JOINT rShldr
        {
          OFFSET -8.77824 -1.95073 1.46304
          CHANNELS 3 Zrotation Xrotation Yrotation
          JOINT rForeArm
          {
            OFFSET -28.1742 -1.7115 0.48768
            CHANNELS 3 Zrotation Xrotation Yrotation
            JOINT rHand
            {
              OFFSET -22.5879 0.773209 7.07136
              CHANNELS 3 Zrotation Xrotation Yrotation
              JOINT rThumb1
              {
                OFFSET -1.2192 -0.487915 3.41376
                CHANNELS 3 Zrotation Xrotation Yrotation
                JOINT rThumb2
                {
                  OFFSET -3.37035 -0.52449 3.41376
                  CHANNELS 3 Zrotation Xrotation Yrotation
                  End Site
                  {
                    OFFSET -1.78271 -1.18214 1.43049
                  }
                }
              }
              JOINT rIndex1
              {
                OFFSET -7.75947 0.938293 5.60832
                CHANNELS 3 Zrotation Xrotation Yrotation
                JOINT rIndex2
                {
                  OFFSET -2.54057 -0.884171 1.56538
                  CHANNELS 3 Zrotation Xrotation Yrotation
                  End Site
                  {
                    OFFSET -1.62519 -0.234802 1.16502
                  }
                }
              }
              JOINT rMid1
              {
                OFFSET -8.24714 1.18213 3.41376
                CHANNELS 3 Zrotation Xrotation Yrotation
                JOINT rMid2
                {
                  OFFSET -3.10165 -0.590103 1.0647
                  CHANNELS 3 Zrotation Xrotation Yrotation
                  End Site
                  {
                    OFFSET -2.48547 -0.328903 0.83742
                  }
                }
              }
              JOINT rRing1
              {
                OFFSET -8.82822 0.546677 1.51678
                CHANNELS 3 Zrotation Xrotation Yrotation
                JOINT rRing2
                {
                  OFFSET -2.60934 -0.819778 -0.0198488
                  CHANNELS 3 Zrotation Xrotation Yrotation
                  End Site
                  {
                    OFFSET -2.33842 -0.294052 0.168128
                  }
                }
              }
              JOINT rPinky1
              {
                OFFSET -8.27202 -0.0477905 -0.4584
                CHANNELS 3 Zrotation Xrotation Yrotation
                JOINT rPinky2
                {
                  OFFSET -1.82734 -0.647385 -0.700984
                  CHANNELS 3 Zrotation Xrotation Yrotation
                  End Site
                  {
                    OFFSET -1.69225 -0.51767 -0.607171
                  }
                }
              }
            }
          }
        }
      }
      JOINT lCollar
      {
        OFFSET 2.68224 19.2634 -4.8768
        CHANNELS 3 Zrotation Xrotation Yrotation
        JOINT lShldr
        {
          OFFSET 8.77824 -1.95073 1.46304
          CHANNELS 3 Zrotation Xrotation Yrotation
          JOINT lForeArm
          {
            OFFSET 28.1742 -1.7115 0.48768
            CHANNELS 3 Zrotation Xrotation Yrotation
            JOINT lHand
            {
              OFFSET 22.5879 0.773209 7.07136
              CHANNELS 3 Zrotation Xrotation Yrotation
              JOINT lThumb1
              {
                OFFSET 1.2192 -0.487915 3.41376
                CHANNELS 3 Zrotation Xrotation Yrotation
                JOINT lThumb2
                {
                  OFFSET 3.37035 -0.52449 3.41376
                  CHANNELS 3 Zrotation Xrotation Yrotation
                  End Site
                  {
                    OFFSET 1.78271 -1.18214 1.43049
                  }
                }
              }
              JOINT lIndex1
              {
                OFFSET 7.75947 0.938293 5.60832
                CHANNELS 3 Zrotation Xrotation Yrotation
                JOINT lIndex2
                {
                  OFFSET 2.54057 -0.884171 1.56538
                  CHANNELS 3 Zrotation Xrotation Yrotation
                  End Site
                  {
                    OFFSET 1.62519 -0.234802 1.16502
                  }
                }
              }
              JOINT lMid1
              {
                OFFSET 8.24714 1.18213 3.41376
                CHANNELS 3 Zrotation Xrotation Yrotation
                JOINT lMid2
                {
                  OFFSET 3.10165 -0.590103 1.0647
                  CHANNELS 3 Zrotation Xrotation Yrotation
                  End Site
                  {
                    OFFSET 2.48547 -0.328903 0.83742
                  }
                }
              }
              JOINT lRing1
              {
                OFFSET 8.82822 0.546677 1.51678
                CHANNELS 3 Zrotation Xrotation Yrotation
                JOINT lRing2
                {
                  OFFSET 2.60934 -0.819778 -0.0198488
                  CHANNELS 3 Zrotation Xrotation Yrotation
                  End Site
                  {
                    OFFSET 2.33842 -0.294052 0.168128
                  }
                }
              }
              JOINT lPinky1
              {
                OFFSET 8.27202 -0.0477905 -0.4584
                CHANNELS 3 Zrotation Xrotation Yrotation
                JOINT lPinky2
                {
                  OFFSET 1.82734 -0.647385 -0.700984
                  CHANNELS 3 Zrotation Xrotation Yrotation
                  End Site
                  {
                    OFFSET 1.69225 -0.51767 -0.607171
                  }
                }
              }
            }
          }
        }
      }
    }
  }
  JOINT rButtock
  {
    OFFSET -8.77824 4.35084 1.2192
    CHANNELS 3 Zrotation Xrotation Yrotation
    JOINT rThigh
    {
      OFFSET 0 -1.70687 -2.19456
      CHANNELS 3 Zrotation Xrotation Yrotation
      JOINT rShin
      {
        OFFSET 0 -36.8199 0.73152
        CHANNELS 3 Zrotation Xrotation Yrotation
        JOINT rFoot
        {
          OFFSET 0.73152 -45.1104 -5.12064
          CHANNELS 3 Zrotation Xrotation Yrotation
          End Site
          {
            OFFSET -1.1221 -3.69964 12.103
          }
        }
      }
    }
  }
  JOINT lButtock
  {
    OFFSET 8.77824 4.35084 1.2192
    CHANNELS 3 Zrotation Xrotation Yrotation
    JOINT lThigh
    {
      OFFSET 0 -1.70687 -2.19456
      CHANNELS 3 Zrotation Xrotation Yrotation
      JOINT lShin
      {
        OFFSET 0 -36.8199 0.73152
        CHANNELS 3 Zrotation Xrotation Yrotation
        JOINT lFoot
        {
          OFFSET -0.73152 -45.1104 -5.12064
          CHANNELS 3 Zrotation Xrotation Yrotation
          End Site
          {
            OFFSET 1.1221 -3.69964 12.103
          }
        }
      }
    }
  }
}
MOTION
Frames:	4
Frame Time:	0.00833333
-4.33823 83.821 -167.341 0.0 0.0 0.0 -1.70025 -0.00276347 -0.0463337 -0.46906 0.00196691 -0.081227 1.27775e-14 1.59028e-15 4.47266e-16 3.87257e-14 9.54166e-15 1.31229e-15 -0.0 0.0 0.0 -0.0 0.0 0.0 6.55867e-15 -1.90243e-17 2.48481e-16 1.37181e-13 -4.5969e-16 6.36111e-15 2.32921e-12 -7.13438e-13 3.18055e-14 2.66918e-11 6.42174e-13 9.31903e-13 6.29538e-11 -1.54561e-13 2.08008e-12 1.08707e-10 -2.67167e-13 3.58449e-12 6.29571e-11 -1.55052e-13 2.06736e-12 7.73091 5.47488 0.417314 6.2954e-11 -1.54555e-13 2.0769e-12 2.90554 0.965183 0.102902 6.29645e-11 -1.54555e-13 2.07372e-12 10.2786 0.731801 0.0259123 6.29495e-11 -1.51871e-13 2.07372e-12 2.22167 -0.733487 -0.20892 6.46213e-15 -1.59183e-17 1.49089e-16 1.33248e-13 -3.54085e-16 3.77691e-15 2.33239e-12 6.87994e-13 9.54166e-14 2.66965e-11 -7.57941e-13 8.68291e-13 6.29735e-11 -1.51494e-13 2.07054e-12 1.08764e-10 -2.70347e-13 3.58687e-12 6.29702e-11 -1.51076e-13 2.08326e-12 -7.73091 5.47488 -0.417314 6.29739e-11 -1.51673e-13 2.07372e-12 -2.90554 0.965183 -0.102902 6.29639e-11 -1.51772e-13 2.0777e-12 -10.2786 0.731801 -0.0259123 6.29738e-11 -1.46703e-13 2.0769e-12 -2.22167 -0.733487 0.20892 -2.03217e-16 0.0 -3.88251e-19 -0.814834 -1.92421 -0.00353955 -0.00895762 -2.0786 -0.0738016 -0.474969 3.99777 0.134823 2.03217e-16 0.0 3.88251e-19 -1.77317 -6.84764 0.169509 -0.00326944 6.83979 -0.0864602 0.504269 0.00290791 -0.0573056
-6.45111 79.3382 -168.818 -6.5171 -2.1115 6.0101 1.78327 4.9089 0.0866805 0.256192 -2.8832 0.231157 -0.510699 -0.944225 -1.03809 0.723814 -3.41453 -1.80293 -0.0 0.0 0.0 -0.0 0.0 0.0 -4.61951e-14 3.42529e-14 -6.25861e-15 22.2221 11.339 -0.918507 -25.2885 -23.0778 14.3489 0.0216131 -3.26201 -0.455765 -9.21298e-11 -1.78202e-08 7.86397e-10 -1.66195e-10 -3.07591e-08 1.35872e-09 -9.21275e-11 -1.78202e-08 7.86384e-10 7.73091 5.47488 0.417314 -9.21301e-11 -1.78202e-08 7.86395e-10 2.90554 0.965183 0.102902 -9.21216e-11 -1.78202e-08 7.86392e-10 10.2786 0.731801 0.0259123 -9.21331e-11 -1.78202e-08 7.86395e-10 2.22167 -0.733487 -0.20892 -4.63104e-14 3.42526e-14 -6.44187e-15 -22.9807 13.3694 5.52179 23.0871 -20.9605 -14.8717 -0.144543 -8.45113 1.14161 -2.78431e-10 -1.51443e-09 -6.15635e-10 -4.65257e-10 -2.56632e-09 -1.07119e-09 -2.78433e-10 -1.51443e-09 -6.15627e-10 -7.73091 5.47488 -0.417314 -2.7843e-10 -1.51443e-09 -6.15634e-10 -2.90554 0.965183 -0.102902 -2.78437e-10 -1.51443e-09 -6.15632e-10 -10.2786 0.731801 -0.0259123 -2.78428e-10 -1.51443e-09 -6.15636e-10 -2.22167 -0.733487 0.20892 -2.03217e-16 0.0 -3.88251e-19 4.48656 -7.80277 0.365288 0.00540817 12.2569 0.105316 -1.10681 -1.70913 -5.07093 2.03217e-16 0.0 3.88251e-19 2.50866 -17.5653 1.81617 0.0177773 32.687 -0.439781 -0.155669 5.66415 -3.22299
-6.41675 79.5732 -166.075 -6.5006 -1.2206 5.8052 5.43848 10.1314 0.179937 1.08221 -5.94095 0.553928 -1.08446 -1.94912 -2.12622 1.25264 -7.03233 -3.71062 -0.0 0.0 0.0 -0.0 0.0 0.0 -1.04735e-13 7.17555e-14 -1.3418e-14 46.139 23.3114 -2.01608 -36.2011 -41.9846 37.8802 -0.0123182 -6.70924 -0.942441 -2.66401e-10 -3.75528e-08 1.65439e-09 -4.75002e-10 -6.48191e-08 2.8584e-09 -2.66399e-10 -3.75528e-08 1.65437e-09 7.73091 5.47488 0.417314 -2.66402e-10 -3.75528e-08 1.65439e-09 2.90554 0.965183 0.102902 -2.66395e-10 -3.75528e-08 1.65438e-09 10.2786 0.731801 0.0259123 -2.66403e-10 -3.75528e-08 1.65439e-09 2.22167 -0.733487 -0.20892 -1.04872e-13 7.17515e-14 -1.36913e-14 -50.3459 27.066 12.3548 33.5079 -37.9551 -37.2941 0.0845922 -17.3631 2.43257 -6.56183e-10 -3.19354e-09 -1.30236e-09 -1.10032e-09 -5.41154e-09 -2.26602e-09 -6.56182e-10 -3.19354e-09 -1.30235e-09 -7.73091 5.47488 -0.417314 -6.56181e-10 -3.19354e-09 -1.30236e-09 -2.90554 0.965183 -0.102902 -6.56185e-10 -3.19354e-09 -1.30236e-09 -10.2786 0.731801 -0.0259123 -6.56177e-10 -3.19354e-09 -1.30236e-09 -2.22167 -0.733487 0.20892 -2.03217e-16 0.0 -3.88251e-19 10.1938 -14.1581 0.764759 -0.0892631 27.4916 0.324126 -2.94221 -7.73926 -10.7448 2.03217e-16 0.0 3.88251e-19 7.81448 -28.8258 3.85406 0.730904 60.1297 -1.34863 -0.159902 11.6933 -6.72928
-6.41822 79.9318 -163.255 -6.6638 -0.4888 5.572 8.68007 14.732 0.363712 1.80195 -8.65263 0.864892 -1.63479 -2.82895 -3.11766 1.51903 -10.2027 -5.48618 -0.0 0.0 0.0 -0.0 0.0 0.0 -1.51703e-13 1.02797e-13 -1.92728e-14 67.947 33.9783 -3.25859 -31.1541 -46.8992 68.6924 -0.0927888 -9.78354 -1.38523 -4.02297e-10 -5.34603e-08 2.35503e-09 -7.15999e-10 -9.22767e-08 4.06898e-09 -4.02297e-10 -5.34603e-08 2.35502e-09 7.73091 5.47488 0.417314 -4.02298e-10 -5.34604e-08 2.35503e-09 2.90554 0.965183 0.102902 -4.02294e-10 -5.34603e-08 2.35503e-09 10.2786 0.731801 0.0259123 -4.02298e-10 -5.34603e-08 2.35504e-09 2.22167 -0.733487 -0.20892 -1.51855e-13 1.0279e-13 -1.96238e-14 -78.3413 38.4057 20.7449 30.7907 -42.6064 -64.4323 0.667165 -25.3109 3.74786 -9.6124e-10 -4.543e-09 -1.85105e-09 -1.6133e-09 -7.69842e-09 -3.22073e-09 -9.61238e-10 -4.54299e-09 -1.85105e-09 -7.73091 5.47488 -0.417314 -9.61237e-10 -4.543e-09 -1.85105e-09 -2.90554 0.965183 -0.102902 -9.61239e-10 -4.543e-09 -1.85105e-09 -10.2786 0.731801 -0.0259123 -9.61232e-10 -4.543e-09 -1.85106e-09 -2.22167 -0.733487 0.20892 -2.03217e-16 0.0 -3.88251e-19 15.3286 -19.5566 1.1597 -0.299737 40.9264 0.603871 -5.49942 -12.6585 -15.8705 2.03217e-16 0.0 3.88251e-19 13.3943 -38.8587 6.24323 8.82658 84.3062 -9.50468 0.462415 16.7727 -9.93374
